<svg xmlns="http://www.w3.org/2000/svg" xmlns:xlink="http://www.w3.org/1999/xlink" viewBox="0 0 114.38 67.19"><defs><style>.cls-1{fill:url(#linear-gradient);}.cls-2{fill:url(#linear-gradient-2);}.cls-3{opacity:0.9;fill:url(#linear-gradient-3);}</style><linearGradient id="linear-gradient" x1="-0.5" y1="66.68" x2="61" y2="5.18" gradientUnits="userSpaceOnUse"><stop offset="0.2" stop-color="#630000"/><stop offset="0.94" stop-color="#d50000"/></linearGradient><linearGradient id="linear-gradient-2" x1="36.94" y1="33.59" x2="92.54" y2="33.59" gradientUnits="userSpaceOnUse"><stop offset="0.1" stop-color="#df0000"/><stop offset="0.93" stop-color="#7a0000"/></linearGradient><linearGradient id="linear-gradient-3" x1="73.66" y1="42.87" x2="114.38" y2="42.87" gradientUnits="userSpaceOnUse"><stop offset="0" stop-color="#5e0000"/><stop offset="1" stop-color="#f00000"/></linearGradient></defs><g id="Layer_2" data-name="Layer 2"><g id="_3_objects" data-name="3 objects"><g id="MAIN_LOGO" data-name="MAIN LOGO"><path class="cls-1" d="M38.92,0h-.13A39.3,39.3,0,0,0,0,39.3c0,.19,0,.38,0,.57V67.19H18.88V39.89A21.83,21.83,0,0,1,36.94,18.5v35H55.81V0Z"/><path class="cls-2" d="M76.83,0H75l-.16,0A39.29,39.29,0,0,0,36.94,39.3V67.18H55.81v-27h0V39.9A21.87,21.87,0,0,1,73.67,18.53V67.19H92.54V0Z"/><path class="cls-3" d="M113,18.56a39.31,39.31,0,0,0-39.3,38.51v.21c0,.19,0,.39,0,.59s0,.33,0,.49v8.82H92.54V58h0a21.84,21.84,0,0,1,21.83-21.31V18.59C113.91,18.58,113.44,18.56,113,18.56Z"/></g></g></g></svg>